<svg width="13" height="13" viewBox="0 0 13 13" fill="none" xmlns="http://www.w3.org/2000/svg">
<path d="M11.8574 1.54858H1.14257C0.966686 1.54858 0.802028 1.59182 0.653061 1.6631L6.4746 7.48463L7.7794 6.23067C7.7794 6.23067 7.7795 6.23054 7.77952 6.23049C7.77955 6.23044 7.77965 6.23039 7.77965 6.23039L12.3471 1.6632C12.1981 1.59187 12.0333 1.54858 11.8574 1.54858Z" fill="#ED1C24"/>
<path d="M12.8856 2.2019L8.58743 6.49988L12.8855 10.7979C12.9568 10.649 13 10.4843 13 10.3084V2.69123C13 2.51545 12.9569 2.35082 12.8856 2.2019Z" fill="#ED1C24"/>
<path d="M0.114512 2.20166C0.0432402 2.35063 0 2.51528 0 2.69117V10.3083C0 10.4841 0.0431895 10.6488 0.11441 10.7977L4.41261 6.49976L0.114512 2.20166Z" fill="#ED1C24"/>
<path d="M8.04889 7.03838L6.74392 8.2925C6.66952 8.36689 6.57207 8.40409 6.47465 8.40409C6.37722 8.40409 6.27975 8.36689 6.20538 8.2925L4.95119 7.03833L0.652908 11.3363C0.801901 11.4076 0.96666 11.4509 1.14259 11.4509H11.8574C12.0333 11.4509 12.198 11.4077 12.3469 11.3364L8.04889 7.03838Z" fill="#ED1C24"/>
</svg>
