<svg width="13" height="13" viewBox="0 0 13 13" fill="none" xmlns="http://www.w3.org/2000/svg">
<g clip-path="url(#clip0_1_409)">
<path d="M12.6461 9.54045L10.832 7.72626C10.184 7.07833 9.08256 7.33753 8.82339 8.1798C8.62901 8.76296 7.98109 9.08692 7.39795 8.95731C6.10211 8.63335 4.35271 6.94875 4.02875 5.58811C3.83437 5.00495 4.22312 4.35702 4.80626 4.16267C5.64856 3.9035 5.90773 2.80203 5.2598 2.15411L3.44562 0.339916C2.92728 -0.113631 2.14977 -0.113631 1.69622 0.339916L0.465162 1.57097C-0.765895 2.86682 0.594747 6.30082 3.63999 9.34607C6.68524 12.3913 10.1192 13.8168 11.4151 12.5209L12.6461 11.2898C13.0997 10.7715 13.0997 9.99399 12.6461 9.54045Z" fill="#ED1C24"/>
</g>
<defs>
<clipPath id="clip0_1_409">
<rect width="13" height="13" fill="white" transform="translate(0 -0.000244141)"/>
</clipPath>
</defs>
</svg>
