<svg width="30" height="16" viewBox="0 0 30 16" fill="none" xmlns="http://www.w3.org/2000/svg">
<path d="M1.68966 9C1.13737 9 0.689655 8.55229 0.689655 8C0.689655 7.44772 1.13737 7 1.68966 7L1.68966 9ZM29.7071 7.29289C30.0976 7.68342 30.0976 8.31658 29.7071 8.70711L23.3431 15.0711C22.9526 15.4616 22.3195 15.4616 21.9289 15.0711C21.5384 14.6805 21.5384 14.0474 21.9289 13.6569L27.5858 8L21.9289 2.34315C21.5384 1.95262 21.5384 1.31946 21.9289 0.928933C22.3195 0.538408 22.9526 0.538408 23.3431 0.928933L29.7071 7.29289ZM1.68966 7L29 7L29 9L1.68966 9L1.68966 7Z" fill="#FA6D47"/>
</svg>
