<svg width="37" height="12" viewBox="0 0 37 12" fill="none" xmlns="http://www.w3.org/2000/svg">
<path d="M1.31036 6.75C0.896153 6.75 0.560364 6.41422 0.560364 6C0.560364 5.58579 0.896152 5.25 1.31036 5.25L1.31036 6.75ZM35.8407 5.46967C36.1336 5.76256 36.1336 6.23744 35.8407 6.53033L31.0677 11.3033C30.7748 11.5962 30.3 11.5962 30.0071 11.3033C29.7142 11.0104 29.7142 10.5355 30.0071 10.2426L34.2497 6L30.0071 1.75736C29.7142 1.46447 29.7142 0.989593 30.0071 0.6967C30.3 0.403806 30.7748 0.403806 31.0677 0.6967L35.8407 5.46967ZM1.31036 5.25L35.3104 5.25L35.3104 6.75L1.31036 6.75L1.31036 5.25Z" fill="#2C2C2C"/>
</svg>
