<svg width="50" height="30" viewBox="0 0 50 30" fill="none" xmlns="http://www.w3.org/2000/svg">
<g clip-path="url(#clip0_1_359)">
<path d="M47.6 19.2C47.6 19.4 47.6 19.5 47.5 19.7C47.1 20.2 46.6 20.6 46 20.9H46.6C46.6 22.3 46.6 23.6 46.6 25H45.7C44.9 23.1 43.9 22.1 42.5 21.8C42.3 21.8 42.2 21.8 42.1 21.7C41.9 21.7 41.6 21.7 41.4 21.7C39.6 21.7 38.2 22.9 37.5 25H35C34 22.6 32.7 21.6 30.7 21.7C28.9 21.8 27.6 22.9 26.8 25H25C25 24.7 25 24.5 25 24.2C25 23.7 24.7 23.4 24.2 23.4C22 23.4 19.8 23.4 17.6 23.4C17.1 23.4 16.8 23.7 16.7 24.3C16.7 24.5 16.7 24.8 16.7 25.1H14.2C13.5 23 12.1 21.7 9.8 21.8C7.7 21.8 6.5 23 5.9 25H1.7V20.9H20.8C20.6 20.8 20.4 20.7 20.2 20.6C19.8 20.4 19.5 20.3 19.1 20.1C19 20.1 19 20.1 18.9 20C18.8 20 18.8 19.9 18.7 19.9L18.6 19.8L18.5 19.7C18.2 19.5 18 19.3 17.8 19.1H14.2V6.90002C14.2 6.20002 13.9 5.90002 13.2 5.90002C11.3 5.90002 9.3 5.90002 7.4 5.90002C3.4 5.90002 0.1 9.30002 0 13.3C0 17.4 0 21.6 0 25.8C0 26.5 0.3 26.8 1 26.8H5.9C6.7 28.8 8 30 9.9 30C11.9 30 13.2 29.1 14.1 26.7H16.6C16.6 27 16.6 27.2 16.6 27.4C16.6 28 16.9 28.3 17.5 28.3C19.7 28.3 21.9 28.3 24.1 28.3C24.6 28.3 24.9 28 25 27.4C25 27.1 25 26.9 25 26.6H26.7C27.3 28.5 28.5 29.8 30.5 29.9C32.8 30 34.3 28.8 34.9 26.6H37.5C38.4 28.9 39.7 29.9 41.6 29.9C43.5 29.9 44.8 28.8 45.7 26.6C46.2 26.6 46.7 26.6 47.3 26.6C48 26.6 48.3 26.3 48.3 25.6C48.3 23.7 48.3 21.9 48.3 20C48.3 19.6 48.1 19.3 47.6 19.2ZM10.9 7.50002H12.5V13.3H10.9V7.50002ZM2.1 11.2C3 9.00002 4.7 7.70002 7.1 7.50002C7.8 7.40002 8.4 7.50002 9.2 7.50002V8.00002C9.2 9.90002 9.2 11.7 9.2 13.6C9.2 13.8 9.1 14.1 9 14.3C8.7 14.8 8.4 15.2 8.1 15.7C8 15.8 7.9 15.9 7.7 15.9C5.8 15.9 3.8 15.9 1.9 15.9C1.9 15.9 1.8 15.9 1.7 15.9C1.7 14.2 1.5 12.7 2.1 11.2ZM1.7 17.5H2.2C4.2 17.5 6.1 17.5 8.1 17.5C8.6 17.5 9 17.3 9.2 16.9C9.5 16.4 9.9 15.8 10.3 15.3C10.4 15.2 10.6 15.1 10.8 15C11.3 15 11.9 15 12.5 15V19.1H1.7C1.7 18.6 1.7 18.1 1.7 17.5ZM10 28.3C8.6 28.3 7.5 27.2 7.5 25.8C7.5 24.4 8.6 23.3 10 23.3C11.4 23.3 12.5 24.4 12.5 25.8C12.5 27.2 11.4 28.3 10 28.3ZM23.3 26.6H18.4V25H23.3V26.6ZM30.8 28.3C29.4 28.3 28.3 27.2 28.3 25.8C28.3 24.4 29.4 23.3 30.8 23.3C32.2 23.3 33.3 24.5 33.2 25.8C33.3 27.2 32.2 28.3 30.8 28.3ZM41.7 28.3C40.3 28.3 39.2 27.2 39.2 25.8C39.2 24.4 40.3 23.3 41.7 23.3C43.1 23.3 44.2 24.4 44.2 25.8C44.1 27.2 43 28.3 41.7 28.3Z" fill="#262B3B"/>
<path d="M19.1 18.9C19.2 19 19.3 19 19.4 19.1C19.4 19.1 19.3 19.1 19.3 19.2C19.7 19.4 20.2 19.5 20.7 19.8C21.3 20.1 21.8 20.4 22.4 20.5C23 20.7 23.6 20.8 24.2 20.9C24.3 20.9 24.4 20.9 24.4 20.9H42.1L42.2 20.8C43.1 20.5 44 20.4 44.9 20.2C45.5 20 46 19.6 46.4 19.2H46.3C46.4 19 46.5 18.9 46.6 18.8C49.1 16.6 50.2 13.9 49.6 10.6C48.8 6.3 45.3 3.4 40.9 3.4H36.5V1C36.5 0.3 36.2 0 35.5 0H30.2C29.3 0 29.1 0.3 29.1 1.1V3.3H28.6C27.3 3.3 25.9 3.2 24.6 3.3C23.6 3.3 22.6 3.4 21.7 3.8C18.5 4.9 16.5 7.2 15.9 10.6C15.4 13.9 16.5 16.7 19.1 18.9ZM30.9 1.7H35V3.3H30.9V1.7ZM23.5 5.1C23.9 5 24.4 5 24.8 5H33C35.7 5 38.5 5 41.2 5C44.7 5 47.4 7.2 48.2 10.6C49.1 14.5 46.3 18.5 42.3 19.1C41.9 19.1 41.5 19.2 41.1 19.2C35.6 19.2 30.2 19.2 24.7 19.2C21.2 19.2 18.4 17 17.6 13.6C16.8 9.7 19.6 5.6 23.5 5.1Z" fill="#ED1C24"/>
<path d="M10.8 25.8C10.8 26.2 10.4 26.6 10 26.6C9.5 26.6 9.2 26.2 9.1 25.8C9.1 25.3 9.5 25 9.9 25C10.5 25 10.8 25.4 10.8 25.8Z" fill="#262B3B"/>
<path d="M30.8 25C31.3 25 31.6 25.4 31.6 25.8C31.6 26.2 31.2 26.6 30.8 26.6C30.3 26.6 30 26.2 30 25.8C30 25.4 30.4 25 30.8 25Z" fill="#262B3B"/>
<path d="M42.5 25.8C42.5 26.2 42.1 26.6 41.7 26.6C41.2 26.6 40.9 26.2 40.9 25.8C40.9 25.4 41.3 25 41.7 25C42.1 25 42.5 25.4 42.5 25.8Z" fill="#262B3B"/>
</g>
<defs>
<clipPath id="clip0_1_359">
<rect width="50" height="30" fill="white"/>
</clipPath>
</defs>
</svg>
