<svg width="50" height="50" viewBox="0 0 50 50" fill="none" xmlns="http://www.w3.org/2000/svg">
<path d="M37.0058 42.0094C36.326 41.719 35.7087 41.4443 35.0758 41.2166C34.9586 41.1774 34.732 41.2951 34.6226 41.405C33.0364 42.967 31.3174 44.3721 29.3796 45.471C28.106 46.1931 26.762 46.8132 25.4337 47.4411C25.1836 47.5589 24.8008 47.5432 24.5429 47.4333C21.1674 46.0675 18.1591 44.1444 15.5728 41.5699C15.2368 41.2323 14.9711 41.1303 14.5335 41.3579C14.0569 41.6091 13.5412 41.7896 13.0021 42.0251C13.3146 42.6766 13.5959 43.281 13.8772 43.8775C14.2054 44.5604 14.1272 44.843 13.4787 45.2276C10.9158 46.7504 8.35289 48.281 5.77436 49.7881C5.54776 49.9215 5.2274 50.0078 4.97736 49.9607C4.57886 49.8901 4.46166 49.529 4.46166 49.1444C4.46947 47.8257 4.45384 46.4992 4.46947 45.1805C4.46947 44.8744 4.39133 44.686 4.10223 44.5369C2.93017 43.9168 1.77374 43.2575 0.609493 42.6138C-0.179693 42.1586 -0.203134 41.562 0.546983 41.0518C2.0394 40.0471 3.53182 39.0424 5.03206 38.0455C5.26647 37.8885 5.32117 37.7629 5.16489 37.5118C4.98518 37.2135 4.83672 36.8917 4.67263 36.5777C4.36789 35.9733 4.39915 35.7378 4.89141 35.259C5.89938 34.2779 7.03237 33.4772 8.25131 32.7786C9.14989 32.2684 9.14208 32.2841 8.74358 31.3344C7.42306 28.2339 6.53229 25 5.94626 21.6797C5.82124 20.9733 5.71967 20.259 5.61809 19.5526C5.53995 19.011 5.75092 18.6421 6.1963 18.5557C6.62606 18.4772 6.96986 18.752 7.05581 19.3014C7.40743 21.6405 7.845 23.9639 8.49354 26.248C9.67341 30.3846 11.4471 34.2386 14.0647 37.6531C16.9089 41.3501 20.4798 44.1209 24.7773 45.9262C24.9023 45.9812 25.0899 45.9812 25.2149 45.9262C29.3093 44.2072 32.7551 41.6248 35.5446 38.1554C38.6389 34.3014 40.5611 29.8666 41.7956 25.1099C42.9677 20.6044 43.4443 16.0126 43.4287 11.3658C43.4287 10.6358 43.374 9.9058 43.3662 9.16797C43.3662 8.90894 43.249 8.8383 43.0224 8.8069C40.0141 8.42229 37.0918 7.68445 34.2554 6.6091C31.083 5.41601 28.0982 3.8697 25.3399 1.88383C25.1368 1.73469 24.9883 1.6562 24.7304 1.83673C21.2768 4.33281 17.4871 6.14599 13.424 7.40188C11.3299 8.05337 9.19677 8.51648 7.02456 8.79905C6.75108 8.83045 6.64168 8.92464 6.6495 9.21507C6.68075 11.3422 6.69638 13.4772 6.71982 15.6044C6.71982 15.8242 6.74326 16.0518 6.73545 16.2716C6.71982 16.7033 6.4229 17.0094 6.03221 17.0173C5.66497 17.033 5.35242 16.7582 5.28991 16.3422C5.24303 15.9969 5.21177 15.6358 5.21177 15.2826C5.21177 12.9592 5.21959 10.6279 5.25084 8.30455C5.25866 7.708 5.51651 7.48822 6.09472 7.41758C11.4471 6.81318 16.4479 5.14913 21.0971 2.41758C22.2144 1.75824 23.2849 1.00471 24.3554 0.266871C24.9023 -0.109895 25.1211 -0.133442 25.6447 0.259022C29.6453 3.281 34.1069 5.33751 38.9514 6.53061C40.5767 6.93092 42.2488 7.1507 43.8975 7.43328C44.4913 7.53532 44.7101 7.73155 44.7648 8.34379C44.9914 11.091 44.9289 13.8305 44.7023 16.5699C44.421 19.898 43.9288 23.1947 42.9599 26.3972C42.3973 28.2575 41.6784 30.0706 41.0064 31.8917C40.8892 32.1978 40.9127 32.3391 41.2174 32.4961C42.577 33.2025 43.835 34.0581 44.9524 35.1099C45.6165 35.73 45.6556 35.9262 45.2415 36.7347C45.1008 37.0016 44.9836 37.2763 44.8195 37.5353C44.6711 37.7708 44.7336 37.8964 44.9524 38.0377C46.4526 39.0345 47.9372 40.0392 49.4296 41.044C50.211 41.5699 50.1797 42.1586 49.3593 42.6138C48.1951 43.2575 47.0386 43.9089 45.8666 44.5369C45.6165 44.6703 45.5149 44.8273 45.5228 45.1177C45.5384 46.4286 45.5306 47.7315 45.5306 49.0424C45.5306 49.945 44.9992 50.2512 44.2335 49.7959C41.6393 48.2653 39.053 46.7268 36.4667 45.1884C35.8963 44.8509 35.8103 44.5369 36.0994 43.9168C36.3885 43.3045 36.6776 42.6923 37.0058 42.0094ZM9.79061 33.6342C8.55605 34.2779 7.43087 34.9921 6.39946 35.8634C6.14161 36.0832 6.14161 36.2402 6.29007 36.5228C7.14958 38.1319 7.98564 39.7567 8.82953 41.3736C9.02487 41.7504 9.22803 42.1272 9.45462 42.5589C10.8455 41.4286 12.377 40.6436 14.0178 39.9686C12.3691 37.9906 10.9861 35.8948 9.79061 33.6342ZM40.4907 42.5118C40.561 42.4725 40.5845 42.4725 40.5845 42.4568C41.655 40.416 42.7254 38.3673 43.7881 36.3187C43.8272 36.2402 43.7881 36.0518 43.7178 35.989C42.6708 35.0392 41.4831 34.2936 40.1938 33.6264C39.053 35.9105 37.6231 37.9827 35.9744 39.9607C37.6231 40.6358 39.1468 41.4207 40.4907 42.5118ZM5.93845 47.9827C7.72779 46.9231 9.41556 45.9184 11.1111 44.9137C10.5329 44.7253 9.97814 44.6075 9.41556 44.5369C8.95455 44.4819 8.66544 44.27 8.45447 43.854C7.72779 42.4254 6.97767 41.0047 6.23537 39.584C6.16505 39.4505 6.0791 39.325 5.98533 39.1758C4.69607 40.0392 3.45369 40.8791 2.14098 41.7582C2.31288 41.8603 2.42228 41.9231 2.53167 41.9859C3.47713 42.5118 4.41477 43.0377 5.36805 43.5479C5.77436 43.7598 5.95408 44.0659 5.93845 44.5212C5.92282 44.9372 5.93845 45.3532 5.93845 45.7771C5.93845 46.4757 5.93845 47.1742 5.93845 47.9827ZM44.0616 47.9749C44.0616 46.7504 44.0772 45.6436 44.0538 44.529C44.046 44.0502 44.2257 43.7441 44.6476 43.5243C45.6165 43.0141 46.562 42.4725 47.5231 41.9466C47.6168 41.8917 47.7028 41.8289 47.8356 41.7347C46.5307 40.8634 45.2883 40.0235 44.0069 39.1601C43.9131 39.3171 43.835 39.4348 43.7725 39.5604C43.0302 40.9812 42.2801 42.4019 41.5534 43.8305C41.3346 44.2622 41.0377 44.4741 40.5689 44.5369C40.0141 44.5997 39.4593 44.7253 38.9045 44.8195C38.9045 44.8509 38.9045 44.8823 38.8967 44.9137C40.5845 45.9184 42.2801 46.9231 44.0616 47.9749ZM11.0252 43.2104C11.033 43.2418 11.0408 43.2731 11.0486 43.3124C11.3534 43.3673 11.6659 43.4144 12.0566 43.4851C11.9238 43.2025 11.83 42.9984 11.7128 42.7551C11.4549 42.9199 11.244 43.0612 11.0252 43.2104ZM38.2794 42.7394C38.17 43.0063 38.0841 43.2104 37.9591 43.4929C38.3654 43.4144 38.6545 43.3595 39.0608 43.281C38.7561 43.0612 38.5529 42.9199 38.2794 42.7394Z" fill="#262B3B"/>
<path d="M9.64215 15.0157C9.68122 14.0345 9.72029 13.0533 9.75936 12.08C9.7828 11.4756 10.0094 11.2323 10.6032 11.1617C13.213 10.8477 15.7447 10.2276 18.1825 9.21504C20.3079 8.33592 22.3394 7.28412 24.1835 5.89479C24.9336 5.32964 25.043 5.34534 25.7931 5.87909C29.3405 8.43796 33.263 10.0942 37.5528 10.8712C38.1779 10.9811 38.8108 11.0675 39.4437 11.1617C39.9516 11.2402 40.2172 11.4756 40.2251 11.978C40.2485 13.6656 40.2485 15.3532 40.2563 17.0329C40.2563 17.3783 40.1313 17.653 39.8109 17.7943C39.389 17.9827 38.9124 17.7315 38.8342 17.2527C38.7873 16.9858 38.8264 16.7033 38.8264 16.4364C38.8264 15.2747 38.8186 14.113 38.8186 12.9435C38.8186 12.653 38.717 12.551 38.4201 12.5117C33.6381 11.821 29.2468 10.1256 25.2852 7.33906C25.0586 7.18207 24.918 7.19777 24.707 7.34691C20.972 9.97642 16.823 11.6169 12.3379 12.4019C12.0957 12.4411 11.8456 12.496 11.6034 12.5039C11.2908 12.5117 11.1815 12.6452 11.1736 12.9592C10.9939 18.1632 11.6112 23.2417 13.4631 28.1318C14.1741 30.0157 15.0883 31.8132 16.2447 33.4694C16.6589 34.0659 16.6667 34.4898 16.2682 34.7802C15.8775 35.0628 15.4477 34.9058 15.0492 34.3249C13.1661 31.6012 11.8925 28.5949 11.033 25.4003C10.1188 22.0094 9.69685 18.54 9.64215 15.0157Z" fill="#262B3B"/>
<path d="M23.074 24.2935C23.2537 24.0345 23.3396 23.854 23.4803 23.7205C25.4571 21.7268 27.434 19.7409 29.4187 17.7551C30.3563 16.8132 31.4815 16.6012 32.552 17.1507C33.9897 17.8885 34.4273 19.8037 33.3646 21.0282C32.552 21.9623 31.6456 22.81 30.7705 23.6891C28.8639 25.6044 26.9574 27.5196 25.0508 29.4348C23.785 30.7064 22.3004 30.7064 21.0346 29.4348C19.7375 28.1318 18.4326 26.8367 17.1433 25.518C16.237 24.5918 16.065 23.4144 16.6511 22.3548C17.409 20.989 19.2609 20.5965 20.4485 21.6169C21.2221 22.2763 21.9097 23.0298 22.6286 23.7519C22.7536 23.8618 22.8552 24.0188 23.074 24.2935ZM18.9718 22.4568C18.6826 22.5588 18.4795 22.5902 18.3232 22.6844C17.6512 23.0769 17.6122 23.8932 18.2295 24.5212C19.5187 25.832 20.8236 27.135 22.1207 28.4301C22.7536 29.0581 23.3396 29.0502 23.9803 28.4144C26.6526 25.7378 29.3171 23.0533 31.9894 20.3767C32.1066 20.259 32.216 20.1256 32.302 19.9764C32.552 19.584 32.4817 19.011 32.1613 18.6734C31.8253 18.3202 31.2784 18.226 30.8721 18.4694C30.6923 18.5714 30.5361 18.7127 30.3876 18.8618C28.1841 21.0675 25.9885 23.281 23.785 25.4866C23.2068 26.0675 22.8708 26.0675 22.3082 25.5023C21.48 24.6703 20.6673 23.8226 19.8156 23.0141C19.5656 22.7708 19.2296 22.6216 18.9718 22.4568Z" fill="#ED1C24"/>
<path d="M40.0375 20.2277C39.7719 21.6013 39.5453 22.9828 39.2327 24.3407C38.6233 27.0409 37.6856 29.6311 36.3495 32.0644C33.8413 36.6327 30.2313 39.9844 25.3946 41.9545C25.1446 42.0566 24.7695 42.0252 24.5039 41.9231C21.8003 40.8321 19.4171 39.2387 17.3699 37.1586C16.9636 36.7426 16.9089 36.3187 17.2215 35.9891C17.534 35.6672 17.9872 35.6986 18.3857 36.1068C19.9953 37.7395 21.8472 39.0189 23.8788 40.0785C24.6836 40.4946 25.3165 40.4632 26.1135 40.0628C30.3329 37.9435 33.4115 34.7018 35.5212 30.4946C36.748 28.0456 37.545 25.4553 38.0685 22.7787C38.2326 21.931 38.3498 21.0754 38.4904 20.2277C38.5529 19.8509 38.6701 19.5055 39.1077 19.4271C39.6234 19.3172 39.9985 19.6782 40.0375 20.2277Z" fill="#262B3B"/>
</svg>
