<svg width="50" height="46" viewBox="0 0 50 46" fill="none" xmlns="http://www.w3.org/2000/svg">
<g clip-path="url(#clip0_1_306)">
<path d="M7.51806 42.0761C7.51806 42.4223 7.52782 42.7012 7.51806 42.9898C7.48877 44.1342 6.65885 45.019 5.49697 45.0479C4.32533 45.0863 3.15368 45.0863 1.98203 45.0479C0.849442 45.0094 -1.43005e-06 44.1342 -1.43005e-06 43.009C-0.00976515 37.4982 -0.00976515 31.9778 -1.43005e-06 26.4671C-1.43005e-06 25.3611 0.781096 24.4763 1.91369 24.409C3.13415 24.3416 4.35462 24.3416 5.57508 24.409C6.70767 24.4667 7.46924 25.3322 7.51806 26.4478C7.52782 26.5729 7.51806 26.6979 7.51806 26.871C7.96719 26.871 8.36751 26.8806 8.76782 26.871C12.1168 26.7652 15.2119 27.5635 18.0238 29.3619C19.5665 30.3525 21.2947 30.6314 23.0717 30.8045C25.2099 31.0161 27.3482 31.2277 29.4669 31.5547C31.7614 31.9105 33.1966 33.6897 33.2064 35.9594C33.2064 36.0171 33.2162 36.0845 33.2357 36.248C33.968 36.1133 34.6905 35.9979 35.3935 35.8344C37.0435 35.4593 38.5081 34.6419 40.002 33.9109C41.8375 33.0069 43.6633 32.1029 45.4892 31.1988C46.983 30.4583 48.7893 30.9872 49.5997 32.401C50.4198 33.8148 49.9805 35.5459 48.5843 36.4499C45.167 38.6523 41.7301 40.8162 38.3421 43.0571C36.9459 43.9804 35.4325 44.4131 33.7825 44.567C29.8282 44.9132 25.8836 45.3172 21.9293 45.6922C20.7479 45.8077 19.5665 45.9231 18.3851 46.0096C17.2134 46.0962 16.1004 45.8557 15.0264 45.3749C12.7221 44.3362 10.3984 43.336 8.08436 42.3165C7.90861 42.23 7.74263 42.1627 7.51806 42.0761ZM7.51806 28.3425C7.51806 28.5444 7.51806 28.7175 7.51806 28.8907C7.51806 31.0546 7.51806 33.2185 7.51806 35.3824C7.51806 35.5267 7.52782 35.6709 7.5083 35.8152C7.43995 36.2095 7.19586 36.4595 6.78578 36.4499C6.36594 36.4499 6.13161 36.2095 6.06327 35.8056C6.04374 35.6613 6.0535 35.517 6.0535 35.3728C6.0535 32.4683 6.0535 29.5735 6.0535 26.669C6.0535 26.0343 5.84847 25.8131 5.22359 25.8131C4.24722 25.8035 3.27084 25.8035 2.29447 25.8131C1.68912 25.8227 1.47432 26.0343 1.47432 26.6306C1.47432 32.0163 1.47432 37.4021 1.47432 42.7878C1.47432 43.3937 1.67936 43.5957 2.29447 43.6053C3.27084 43.6149 4.24722 43.6149 5.22359 43.6053C5.86799 43.6053 6.06327 43.4033 6.06327 42.7589C6.06327 41.5856 6.06327 40.4219 6.06327 39.2486C6.06327 38.7196 6.34642 38.4023 6.77602 38.3926C7.22515 38.383 7.51806 38.7196 7.52782 39.2678C7.52782 39.5083 7.55712 39.7487 7.51806 39.9891C7.46924 40.345 7.60593 40.5181 7.94766 40.6623C10.496 41.7587 13.0346 42.8743 15.5536 44.0092C16.5788 44.4708 17.6333 44.6247 18.7366 44.5189C23.7747 44.0381 28.803 43.5476 33.841 43.0763C35.042 42.9609 36.1648 42.6916 37.19 42.028C40.7049 39.7487 44.2394 37.4886 47.7641 35.2189C48.5257 34.7284 48.7405 33.834 48.2913 33.0742C47.8617 32.3433 46.9244 32.0836 46.1238 32.4779C43.8586 33.5936 41.5837 34.6996 39.3283 35.844C37.3169 36.8539 35.2177 37.5271 32.9623 37.6617C29.1642 37.9022 25.3661 38.133 21.5681 38.3638C21.031 38.3926 20.6991 38.133 20.6698 37.7002C20.6405 37.2386 20.9334 36.9597 21.5095 36.9212C24.0871 36.7577 26.6745 36.6038 29.2521 36.4403C30.0625 36.3922 30.8631 36.3345 31.6637 36.2768C31.9762 34.6707 30.8143 33.1319 29.1154 32.9203C27.065 32.6607 25.0146 32.401 22.9643 32.2375C20.7381 32.0548 18.6682 31.497 16.7643 30.2948C13.9621 28.5348 10.8377 28.1116 7.51806 28.3425Z" fill="#262B3B"/>
<path d="M10.8768 13.8875C10.8963 6.21282 17.233 -0.0192514 25.0244 -1.66296e-05C32.7963 0.0192182 39.1037 6.22244 39.1232 13.8779C39.1427 21.5429 32.7475 27.8231 24.9561 27.7943C17.1939 27.775 10.867 21.5237 10.8768 13.8875ZM37.6489 13.9067C37.6684 7.06877 32.0055 1.46183 25.0342 1.44259C18.0433 1.42336 12.3609 6.99183 12.3511 13.8779C12.3413 20.7255 18.0141 26.3324 24.9658 26.3516C31.9371 26.3805 37.6294 20.7928 37.6489 13.9067Z" fill="#262B3B"/>
<path d="M25.7372 9.45388C25.7372 10.6272 25.7274 11.6466 25.7469 12.6661C25.7469 12.7815 25.8934 12.9161 26.0008 13.0027C26.0984 13.0796 26.2351 13.0989 26.362 13.147C27.8168 13.6952 28.6077 14.7531 28.6077 16.138C28.5979 17.5998 27.6508 18.9751 26.2742 19.4271C25.8348 19.5714 25.6688 19.7733 25.7372 20.2061C25.7469 20.2638 25.7372 20.3312 25.7372 20.3985C25.6981 20.8505 25.415 21.1486 25.0146 21.1583C24.6143 21.1679 24.3117 20.8697 24.2824 20.4177C24.2628 20.1773 24.2824 19.9465 24.2824 19.8407C23.472 19.5137 22.7495 19.2636 22.0562 18.927C21.5583 18.6866 21.4314 18.2346 21.6559 17.8595C21.8903 17.4652 22.2906 17.4267 22.808 17.696C23.2474 17.9172 23.7063 18.0903 24.2824 18.3307C24.2824 17.9364 24.2824 17.696 24.2824 17.4652C24.2824 16.4073 24.2726 15.3493 24.2921 14.2914C24.2921 13.9933 24.2043 13.8202 23.9113 13.7144C23.6868 13.6278 23.4817 13.4932 23.2669 13.3778C22.1734 12.7719 21.7243 11.839 21.8903 10.6464C22.0562 9.47312 22.7006 8.62679 23.8528 8.23247C24.214 8.10745 24.3117 7.95357 24.2824 7.61696C24.2726 7.52079 24.2824 7.42461 24.2921 7.32844C24.3409 6.89566 24.6143 6.63599 25.0146 6.63599C25.4247 6.63599 25.7567 6.89566 25.7176 7.32844C25.659 7.93433 25.9422 8.10745 26.4694 8.24209C26.86 8.34788 27.231 8.59794 27.5727 8.83837C27.9145 9.08842 27.9535 9.51159 27.729 9.81934C27.4849 10.1463 27.0846 10.204 26.694 9.97322C26.4011 9.80973 26.1179 9.66547 25.7372 9.45388ZM25.7762 14.5319C25.7762 15.7148 25.7762 16.8689 25.7762 18.0422C26.6061 17.7537 27.1724 16.917 27.1236 16.0899C27.0846 15.3205 26.6159 14.7627 25.7762 14.5319ZM24.2335 12.2237C24.2335 11.3389 24.2335 10.5118 24.2335 9.627C23.5989 9.93475 23.3548 10.406 23.3158 11.0215C23.2767 11.637 23.638 11.9833 24.2335 12.2237Z" fill="#ED1C24"/>
<path d="M14.2062 13.8779C14.2355 11.5986 14.919 9.53081 16.2664 7.67465C16.6374 7.16493 17.0768 7.0399 17.4478 7.32843C17.8188 7.60733 17.8188 8.00164 17.4576 8.51137C13.5618 13.9644 16.4324 21.3891 23.0326 22.8413C25.6591 23.4183 28.1 22.899 30.3261 21.4083C30.4433 21.3314 30.5605 21.2352 30.6874 21.1679C31.0487 20.9755 31.3806 21.014 31.6442 21.3314C31.8981 21.6295 31.8786 22.0623 31.5368 22.3123C30.9998 22.697 30.4433 23.0721 29.8575 23.3702C23.2767 26.6498 15.3681 22.572 14.3429 15.3686C14.2648 14.8685 14.2453 14.378 14.2062 13.8779Z" fill="#ED1C24"/>
<path d="M35.8035 13.8971C35.7743 15.8687 35.2568 17.696 34.2218 19.3791C33.8606 19.9753 33.4798 20.1484 33.0599 19.8984C32.6303 19.6483 32.601 19.2348 32.9623 18.6481C36.2234 13.272 33.304 6.42442 27.1236 4.97219C24.7413 4.41439 22.4761 4.77023 20.3476 5.96279C20.2207 6.03011 20.0937 6.11666 19.9668 6.17437C19.5567 6.38595 19.1564 6.2994 18.9416 5.95317C18.717 5.58771 18.8244 5.18378 19.2443 4.92411C20.5233 4.12586 21.9195 3.60652 23.4134 3.39494C28.6858 2.63517 33.7043 5.74159 35.2861 10.733C35.4325 11.2043 35.5595 11.6948 35.6376 12.1756C35.7157 12.7431 35.745 13.3201 35.8035 13.8971Z" fill="#ED1C24"/>
</g>
<defs>
<clipPath id="clip0_1_306">
<rect width="50" height="46" fill="white"/>
</clipPath>
</defs>
</svg>
