<svg width="594" height="391" viewBox="0 0 594 391" fill="none" xmlns="http://www.w3.org/2000/svg">
<g clip-path="url(#clip0_1_289)">
<path d="M76.4872 120.646C83.2542 115.612 89.6126 110.532 97.9648 117.252C97.4195 118.432 97.6004 120.52 96.7376 120.837C73.1675 135.576 60.4469 156.9 54.535 183.946C51.715 198.104 46.0347 211.943 41.5803 225.919C42.7151 226.873 43.8954 227.418 45.0302 228.371C48.618 225.877 51.8428 222.929 57.2473 218.983C57.2903 226.017 57.0613 231.781 57.0587 239.223C60.9173 241.721 65.9562 244.764 70.5409 248.17C92.5195 240.283 83.3994 221.899 86.9911 208.24C83.5412 205.788 80.8629 203.835 77.0044 201.338C105.207 182.153 132.911 163.74 161.113 144.556C151.902 126.988 134.878 120.128 120.761 109.456C156.186 81.1534 227.74 92.4405 277.217 134.76C258.467 128.534 244.166 123.218 228.866 119.444C213.157 115.625 196.858 113.394 181.012 110.8C179.876 113.568 178.877 115.11 179.603 116.018C184.867 124.462 192.628 132.77 186.813 144.113C179.27 159.813 175.495 178.826 156.877 186.261C143.026 191.746 128.495 195.915 113.964 200.083C96.845 205.204 93.9833 208.606 94.1136 225.988C94.2945 228.076 94.0667 230.118 94.6563 232.251C96.4691 241.964 95.1041 250.496 84.7505 254.303C73.9883 258.065 62.9072 264.686 52.5132 254.016C47.6565 249.34 42.8453 244.255 38.4428 239.215C32.1793 232.314 32.1363 225.28 35.1814 216.522C43.3173 191.792 51.8619 167.107 59.1805 142.286C65.3631 120.233 73.0436 99.5869 92.4832 81.0793C78.137 76.1715 65.152 73.8965 54.6656 67.7651C43.4075 61.1341 38.1447 48.969 32.7465 34.3079C61.167 42.8527 90.4085 40.3244 111.968 62.1633C95.0337 58.2074 78.1446 53.843 60.8013 49.8415C60.3016 50.6128 59.8475 50.9756 59.7564 51.7925C73.6016 61.193 87.4013 71.002 99.2945 79.3578C91.4344 94.1946 84.1651 107.443 76.4872 120.646Z" fill="#ED1C24"/>
<path d="M364.904 368.658C323.224 364.011 285.222 359.773 247.219 355.535C243.542 355.125 239.184 353.399 236.188 350.583C217.033 333.148 197.878 315.712 178.769 297.868C169.373 289.377 168.014 279.301 173.421 267.913C177.193 260.063 180.192 251.714 183.691 242.593C208.937 242.514 233.773 242.389 258.201 242.218C266.071 197.61 236.884 173.68 213.556 145.442C229.763 152.211 246.016 158.572 261.678 166.521C266.399 168.702 270.619 175.375 271.707 180.458C282.629 242.048 282.315 230.021 332.208 250.058C333.388 250.603 334.069 251.919 338.654 255.325C289.344 256.029 242.94 256.643 196.082 257.621C193.991 265.244 192.036 271.642 190.036 278.449C211.96 297.02 233.067 315.501 254.628 333.618C263.706 341.247 273.922 342.386 304.116 342.445C302.03 335.183 299.898 328.329 297.858 320.658C320.153 317.355 337.813 322.219 348.658 343.69C352.333 351.543 358.188 358.399 364.904 368.658Z" fill="#ED1C24"/>
<path d="M490.627 113.072C468.152 110.566 446.132 107.697 423.612 105.599C389.605 102.634 355.552 100.077 321.59 96.7034C312.192 95.6554 302.93 93.382 293.805 89.8834C279.096 84.5216 264.932 77.9801 250.587 69.3508C271.428 67.9533 292.36 65.739 313.565 64.7955C335.541 64.3515 357.199 63.0452 379.13 63.0096C391.117 63.1058 403.83 64.1099 414.952 68.2448C442.328 78.7406 467.568 93.5469 490.627 113.072Z" fill="url(#paint0_linear_1_289)"/>
<path d="M240.344 279.924C253.507 291.729 263.312 300.266 272.753 308.348C252.233 299.444 231.713 290.54 215.511 268.885C227.135 268.527 235.672 266.171 243.753 267.899C274.536 273.812 305.863 278.546 335.419 288.045C354.986 294.362 368.2 290.873 380.192 276.084C382.599 273.044 385.779 270.504 391.365 264.925C395.401 280.674 398.484 293.837 402.202 308.724C389.76 312.712 379.224 318.153 367.872 319.782C360.698 321.05 352.344 318.051 344.808 315.143C314.164 304.282 283.202 292.56 252.603 281.291C250.605 280.655 247.699 280.744 240.344 279.924Z" fill="#ED1C24"/>
<path d="M574.042 225.75C567.006 222.071 559.56 218.346 553.024 213.896C514.847 188.963 475.716 165.165 431.36 151.122C403.757 142.668 376.742 140.069 348.952 148.135C338.235 151.488 326.838 153.525 314.897 153.021C324.162 144.13 333.836 135.285 343.056 126.802C350.868 119.817 359.632 119.14 369.893 119.871C414.842 124.883 456.746 138.653 495.059 162.36C519.8 177.938 542.496 197.009 565.737 214.9C568.732 217.715 570.683 222.481 574.042 225.75Z" fill="#ED1C24"/>
<path d="M248.146 35.5847C222.987 49.7329 202.687 61.1149 175.901 52.7524C161.51 48.253 145.3 48.9265 128.138 47.0126C143.352 36.7175 157.703 26.7397 173.825 15.7189C196.344 21.538 220.452 27.9479 248.146 35.5847Z" fill="url(#paint1_linear_1_289)"/>
<path d="M349.987 42.3927C304.577 56.3503 262.62 65.3172 218.806 61.2584C259.178 40.5365 300.41 26.9401 349.987 42.3927Z" fill="url(#paint2_linear_1_289)"/>
</g>
<defs>
<linearGradient id="paint0_linear_1_289" x1="438.902" y1="69.0135" x2="314.658" y2="91.3819" gradientUnits="userSpaceOnUse">
<stop stop-color="#F16521"/>
<stop offset="1" stop-color="#ED1C24"/>
</linearGradient>
<linearGradient id="paint1_linear_1_289" x1="244.781" y1="23.2179" x2="155.875" y2="44.4959" gradientUnits="userSpaceOnUse">
<stop stop-color="#F16929"/>
<stop offset="1" stop-color="#ED1C24"/>
</linearGradient>
<linearGradient id="paint2_linear_1_289" x1="330.691" y1="37.829" x2="264.206" y2="52.0483" gradientUnits="userSpaceOnUse">
<stop stop-color="#F16521"/>
<stop offset="1" stop-color="#ED1C24"/>
</linearGradient>
<clipPath id="clip0_1_289">
<rect width="560" height="330" fill="white" transform="translate(36.5723) rotate(6.36288)"/>
</clipPath>
</defs>
</svg>
