<svg width="50" height="50" viewBox="0 0 50 50" fill="none" xmlns="http://www.w3.org/2000/svg">
<g clip-path="url(#clip0_1_318)">
<path d="M43.2141 19.2926C43.3625 19.1131 43.4874 18.9725 43.6046 18.8242C45.5646 16.3414 47.1185 13.6399 47.9853 10.5715C48.3445 9.29108 48.5476 7.9794 48.5163 6.6443C48.446 3.92725 46.2752 1.65523 43.6046 1.49127C40.7934 1.3195 38.3492 3.2636 37.9666 6.01969C37.7401 7.65929 38.0603 9.25985 38.5132 10.8292C38.7162 11.5397 38.9895 12.2267 39.255 12.9216C39.4737 13.4916 39.3644 13.8976 38.9193 14.0693C38.482 14.2411 38.1228 14.0303 37.9041 13.4916C37.0295 11.4069 36.4829 9.25204 36.436 6.98784C36.3501 2.91226 39.7392 -0.288866 43.7998 0.0234384C47.1888 0.28109 49.961 3.23237 50 6.62868C50.0312 9.57216 49.1957 12.297 47.8916 14.9048C46.8687 16.9504 45.5958 18.832 44.0965 20.5575C43.995 20.6746 43.8935 20.7917 43.7764 20.901C43.425 21.2367 43.0033 21.2524 42.6753 20.901C41.4806 19.6206 40.4654 18.2074 39.5674 16.7083C39.3409 16.3257 39.4581 15.9041 39.8173 15.6933C40.1687 15.4903 40.5591 15.5996 40.8324 15.9822C41.5352 16.9816 42.2458 17.981 42.9486 18.9725C43.0111 19.074 43.097 19.1677 43.2141 19.2926Z" fill="#ED1C24"/>
<path d="M43.2141 48.0949C44.2449 46.8691 45.1195 45.6121 45.8847 44.277C47.1029 42.1533 48.0322 39.9126 48.3758 37.4688C48.5554 36.1883 48.6413 34.9157 48.1571 33.6587C47.2981 31.4491 45.0101 30.0359 42.6753 30.2936C40.2311 30.5668 38.2945 32.4016 37.9666 34.7908C37.7401 36.446 38.0603 38.0543 38.5132 39.6393C38.724 40.3888 39.0286 41.1071 39.2941 41.841C39.419 42.1768 39.4034 42.4813 39.1145 42.7311C38.8802 42.9419 38.5913 42.9966 38.318 42.8326C38.1618 42.7389 38.0134 42.575 37.9431 42.411C37.0061 40.2561 36.436 38.0075 36.4126 35.6496C36.3736 32.0893 39.1145 29.1068 42.6597 28.8179C46.1971 28.529 49.3753 31.0509 49.8907 34.58C50.1562 36.3913 49.836 38.1636 49.3441 39.8969C48.3133 43.5431 46.3845 46.6974 43.9013 49.5315C43.3859 50.1171 42.9642 50.1405 42.4879 49.5315C41.4884 48.2355 40.5279 46.9082 39.5752 45.5809C39.2941 45.1827 39.3956 44.7533 39.747 44.5191C40.1062 44.2848 40.5279 44.4019 40.8168 44.8157C41.5118 45.8073 42.2146 46.7911 42.9096 47.7748C43.0033 47.8685 43.097 47.9544 43.2141 48.0949Z" fill="#262B3B"/>
<path d="M6.85616 19.3239C7.44183 18.5119 8.02749 17.7233 8.59754 16.9191C8.80057 16.6302 8.97236 16.3257 9.16758 16.0369C9.44089 15.623 9.83914 15.5059 10.1983 15.7245C10.581 15.951 10.6981 16.4038 10.4014 16.8098C9.44089 18.1527 8.46479 19.48 7.46525 20.7917C7.02796 21.3616 6.59066 21.3382 6.10652 20.7917C3.4437 17.7545 1.4134 14.3738 0.452916 10.4154C0.0780912 8.86946 -0.140556 7.30793 0.101518 5.72299C0.570048 2.59994 3.33438 0.148347 6.51258 0.0234248C9.72982 -0.101497 12.6659 2.13148 13.3844 5.21549C13.7514 6.79263 13.5796 8.35415 13.2204 9.89226C12.9393 11.1181 12.502 12.3048 12.1037 13.4994C11.9241 14.0459 11.518 14.2567 11.1042 14.1006C10.6513 13.9288 10.5185 13.515 10.7528 12.9607C11.5493 11.0478 12.0725 9.07246 12.1115 6.98782C12.1584 4.33323 10.3077 2.02998 7.78542 1.58495C5.13041 1.11649 2.63939 2.59213 1.75699 5.15303C1.35093 6.33198 1.45245 7.54216 1.63986 8.74454C2.24114 12.5547 4.03717 15.8026 6.36421 18.7929C6.47353 18.9335 6.59066 19.074 6.7078 19.2146C6.71561 19.238 6.73903 19.2458 6.85616 19.3239Z" fill="#262B3B"/>
<path d="M6.85617 48.1184C7.45745 47.2908 8.04311 46.4866 8.62096 45.6746C8.8318 45.3779 9.0036 45.0578 9.21443 44.7611C9.46432 44.402 9.86257 44.3161 10.2062 44.5191C10.5576 44.7299 10.6825 45.1515 10.4482 45.5341C9.55021 47.0175 8.54287 48.4229 7.36374 49.6955C6.99672 50.0937 6.57505 50.0937 6.21584 49.6877C3.12354 46.1743 0.843359 42.2549 0.148372 37.5469C-0.10932 35.798 -0.0624664 34.0803 0.788697 32.4485C2.13182 29.8798 5.03671 28.4276 7.92598 28.9038C10.8074 29.3879 13.1267 31.7458 13.5015 34.6268C13.7514 36.5319 13.3922 38.3823 12.8612 40.2015C12.6503 40.9354 12.3614 41.6459 12.0881 42.3642C11.9007 42.8404 11.5024 43.0434 11.112 42.8873C10.6825 42.7155 10.5263 42.3095 10.7372 41.8176C11.5493 39.8813 12.0803 37.8826 12.1193 35.7745C12.1662 33.1199 10.3311 30.8323 7.78542 30.3795C5.13822 29.9032 2.63939 31.3867 1.75699 33.9554C1.35874 35.1265 1.45245 36.3211 1.63205 37.5078C2.22552 41.3179 4.01375 44.5659 6.34078 47.564C6.45791 47.7202 6.58286 47.8685 6.7078 48.0169C6.72341 48.0403 6.74684 48.0481 6.85617 48.1184Z" fill="#ED1C24"/>
<path d="M40.1296 35.6808C40.1218 33.9788 41.4884 32.5968 43.1907 32.589C44.893 32.5812 46.2752 33.9554 46.283 35.6496C46.2908 37.3517 44.9164 38.7336 43.2219 38.7414C41.5274 38.7492 40.1374 37.3751 40.1296 35.6808ZM44.8227 35.6652C44.8227 34.7752 44.1043 34.0569 43.2141 34.0569C42.3239 34.0569 41.5977 34.7673 41.5977 35.6574C41.5977 36.5475 42.3161 37.2736 43.2063 37.2736C44.0887 37.2814 44.8149 36.5553 44.8227 35.6652Z" fill="#262B3B"/>
<path d="M6.77808 9.97037C5.08356 9.96256 3.7092 8.58061 3.71701 6.87855C3.72482 5.17649 5.10699 3.81016 6.80931 3.81797C8.50383 3.82577 9.87819 5.20772 9.87038 6.90978C9.86257 8.60404 8.4726 9.97818 6.77808 9.97037ZM6.78589 8.50254C7.6761 8.50254 8.40232 7.78424 8.40232 6.90198C8.40232 6.01191 7.6839 5.2858 6.7937 5.2858C5.90349 5.2858 5.17727 6.0041 5.17727 6.88636C5.17727 7.77643 5.89568 8.50254 6.78589 8.50254Z" fill="#262B3B"/>
<path d="M6.78589 38.7571C5.08356 38.7571 3.7092 37.3829 3.71701 35.6809C3.71701 33.9866 5.09918 32.6047 6.8015 32.6125C8.50383 32.6125 9.87038 33.9944 9.87038 35.6965C9.86257 37.3907 8.49602 38.7571 6.78589 38.7571ZM5.17727 35.6887C5.17727 36.5787 5.90349 37.297 6.7937 37.2892C7.6839 37.2892 8.40232 36.5631 8.40232 35.673C8.40232 34.7908 7.66829 34.0647 6.78589 34.0647C5.90349 34.0725 5.17727 34.8064 5.17727 35.6887Z" fill="#ED1C24"/>
<path d="M43.2063 3.80231C44.9165 3.80231 46.283 5.16083 46.283 6.86289C46.283 8.56496 44.9086 9.9469 43.2063 9.9469C41.5118 9.9469 40.1296 8.56496 40.1296 6.8707C40.1296 5.16864 41.4962 3.80231 43.2063 3.80231ZM44.8227 6.87851C44.8227 5.98844 44.1121 5.27014 43.2219 5.26233C42.3239 5.26233 41.6055 5.97283 41.6055 6.86289C41.6055 7.74516 42.3317 8.48688 43.2063 8.48688C44.0809 8.49469 44.8149 7.76077 44.8227 6.87851Z" fill="#ED1C24"/>
<path d="M12.8846 25.9057C12.4083 25.9057 11.9241 25.9135 11.4478 25.9057C10.948 25.8901 10.6513 25.6246 10.6513 25.1874C10.6435 24.758 10.9324 24.4535 11.4321 24.4457C12.4083 24.4301 13.3765 24.4301 14.3527 24.4457C14.829 24.4535 15.1492 24.7736 15.1413 25.1874C15.1335 25.6012 14.8134 25.8901 14.337 25.9057C13.8451 25.9135 13.3609 25.9057 12.8846 25.9057Z" fill="#262B3B"/>
<path d="M37.1467 25.9057C36.6703 25.9057 36.1862 25.9135 35.7098 25.9057C35.2023 25.8979 34.8743 25.5934 34.8821 25.164C34.8899 24.758 35.2101 24.4535 35.6942 24.4457C36.6547 24.4301 37.6152 24.4301 38.5757 24.4457C39.0754 24.4535 39.3644 24.7424 39.3722 25.1718C39.38 25.6246 39.0833 25.8979 38.5522 25.9057C38.0759 25.9135 37.6074 25.9057 37.1467 25.9057Z" fill="#262B3B"/>
<path d="M24.9883 25.9057C24.5198 25.9057 24.0512 25.9135 23.5827 25.9057C23.0751 25.8979 22.7471 25.6012 22.755 25.1718C22.7628 24.7502 23.0673 24.4535 23.5593 24.4457C24.5198 24.4301 25.4802 24.4301 26.4407 24.4457C26.9327 24.4535 27.2372 24.7424 27.245 25.164C27.2528 25.6012 26.9405 25.8901 26.4251 25.9057C25.9488 25.9135 25.4646 25.9057 24.9883 25.9057Z" fill="#262B3B"/>
<path d="M18.9364 25.9057C18.4601 25.9057 17.976 25.9135 17.4996 25.9057C16.9998 25.8901 16.7109 25.6168 16.7109 25.1796C16.7109 24.7502 16.9998 24.4535 17.4996 24.4457C18.4601 24.4301 19.4206 24.4301 20.3811 24.4457C20.8887 24.4535 21.2088 24.758 21.1932 25.1952C21.1854 25.6168 20.8808 25.8901 20.3811 25.9057C19.8969 25.9135 19.4128 25.9057 18.9364 25.9057Z" fill="#262B3B"/>
<path d="M31.0323 25.9057C30.5638 25.9057 30.0953 25.9135 29.6346 25.9057C29.1426 25.8901 28.8302 25.6168 28.8224 25.1952C28.8146 24.7658 29.127 24.4535 29.6346 24.4457C30.5794 24.4301 31.5321 24.4301 32.477 24.4457C33.0002 24.4535 33.3047 24.7346 33.2969 25.1796C33.2969 25.6246 33.0002 25.8901 32.4692 25.9057C31.9928 25.9135 31.5087 25.9057 31.0323 25.9057Z" fill="#262B3B"/>
<path d="M6.15336 24.3441C6.15336 24.0475 6.13775 23.743 6.15336 23.4463C6.17679 23.0481 6.48134 22.7592 6.85616 22.7514C7.20756 22.7436 7.53553 23.0012 7.59019 23.376C7.62143 23.618 7.62143 23.8679 7.60581 24.1099C7.59019 24.3676 7.69951 24.4535 7.9494 24.4456C8.129 24.4378 8.31641 24.4456 8.48821 24.4769C8.84741 24.5471 9.08168 24.8595 9.06606 25.203C9.05044 25.5543 8.80056 25.8588 8.43355 25.8822C7.87912 25.9135 7.31688 25.9135 6.76245 25.8822C6.39544 25.8588 6.17679 25.609 6.15336 25.2342C6.13775 24.9375 6.15336 24.6408 6.15336 24.3441Z" fill="#262B3B"/>
<path d="M43.8544 26.0072C43.8544 26.2961 43.8623 26.5772 43.8544 26.866C43.8388 27.2955 43.5421 27.5922 43.1517 27.6078C42.769 27.6234 42.441 27.3267 42.4098 26.9051C42.3864 26.6709 42.3942 26.4366 42.402 26.2024C42.4098 25.9916 42.3239 25.8979 42.1053 25.8979C41.9101 25.9057 41.7148 25.9057 41.5274 25.8745C41.1916 25.8198 40.9418 25.5231 40.9496 25.1874C40.9574 24.8439 41.1136 24.5316 41.4571 24.5003C42.0818 24.4457 42.7222 24.4535 43.3547 24.5003C43.6827 24.5238 43.8466 24.8126 43.8623 25.1484C43.8545 25.4373 43.8466 25.7261 43.8544 26.0072Z" fill="#262B3B"/>
<path d="M22.2396 6.42571C22.6847 6.42571 23.122 6.4179 23.5671 6.42571C24.0434 6.43352 24.3245 6.70679 24.3401 7.1284C24.3558 7.56562 24.0668 7.87793 23.5827 7.88574C22.6847 7.90135 21.7945 7.90135 20.8964 7.88574C20.4279 7.87793 20.1156 7.5422 20.139 7.12059C20.1546 6.71459 20.4592 6.43352 20.9277 6.42571C21.3572 6.4179 21.8023 6.42571 22.2396 6.42571Z" fill="#262B3B"/>
<path d="M27.7682 6.42571C28.2133 6.42571 28.6506 6.4179 29.0957 6.42571C29.5565 6.43352 29.861 6.71459 29.8766 7.1284C29.8922 7.55001 29.5877 7.87793 29.1114 7.88574C28.2133 7.90135 27.3231 7.90135 26.4251 7.88574C25.941 7.87793 25.6599 7.55782 25.6755 7.12059C25.6911 6.69898 25.98 6.43352 26.4564 6.42571C26.8858 6.4179 27.3231 6.42571 27.7682 6.42571Z" fill="#262B3B"/>
<path d="M27.7604 42.1221C28.2055 42.1221 28.6428 42.1143 29.0879 42.1221C29.5721 42.1377 29.8766 42.4344 29.8766 42.8482C29.8766 43.2698 29.5643 43.5665 29.0801 43.5743C28.2133 43.59 27.3388 43.59 26.472 43.5743C25.9722 43.5665 25.6755 43.2933 25.6677 42.8638C25.6599 42.411 25.9488 42.1377 26.472 42.1221C26.9015 42.1143 27.3309 42.1221 27.7604 42.1221Z" fill="#262B3B"/>
<path d="M22.2396 42.1221C22.6847 42.1221 23.122 42.1065 23.5671 42.1221C24.0668 42.1377 24.348 42.4188 24.3401 42.8638C24.3323 43.2776 24.0512 43.5665 23.5827 43.5743C22.6847 43.5899 21.7945 43.5899 20.8965 43.5743C20.4357 43.5665 20.139 43.262 20.139 42.856C20.139 42.45 20.4357 42.1612 20.8886 42.1221C20.9121 42.1221 20.9433 42.1221 20.9667 42.1221C21.3884 42.1221 21.8101 42.1221 22.2396 42.1221Z" fill="#262B3B"/>
<path d="M17.3512 6.42571C17.6011 6.42571 17.8432 6.4179 18.0931 6.42571C18.507 6.44913 18.7959 6.71459 18.8271 7.09717C18.8583 7.46412 18.6007 7.83108 18.2024 7.86231C17.648 7.90135 17.0857 7.90135 16.5313 7.86231C16.1253 7.83108 15.8988 7.48755 15.9222 7.08936C15.9457 6.7224 16.219 6.45694 16.6172 6.43352C16.8515 6.4179 17.1014 6.42571 17.3512 6.42571Z" fill="#262B3B"/>
<path d="M32.641 6.4257C32.8908 6.4257 33.1329 6.41009 33.3828 6.4257C33.781 6.44913 34.0544 6.70678 34.0856 7.07373C34.1168 7.47192 33.8904 7.82327 33.4921 7.8545C32.9221 7.89353 32.352 7.89353 31.782 7.8545C31.3993 7.82327 31.1573 7.46412 31.1807 7.10497C31.2041 6.73801 31.4774 6.45693 31.8679 6.4257C32.1178 6.41789 32.3833 6.4257 32.641 6.4257Z" fill="#262B3B"/>
<path d="M17.3591 43.5822C17.1014 43.5822 16.8359 43.5978 16.5782 43.5744C16.1565 43.5353 15.9066 43.2464 15.9066 42.8561C15.9066 42.4579 16.1565 42.1612 16.5782 42.1456C17.0936 42.1221 17.6167 42.1221 18.1399 42.1456C18.546 42.169 18.8193 42.4813 18.8193 42.8561C18.8193 43.2308 18.5382 43.5431 18.1399 43.5744C17.8822 43.5978 17.6246 43.5822 17.3591 43.5822Z" fill="#262B3B"/>
<path d="M32.68 42.1456C32.9533 42.1456 33.2266 42.1221 33.4999 42.1534C33.8591 42.1924 34.0778 42.4657 34.0934 42.817C34.109 43.184 33.8982 43.5275 33.539 43.5509C32.9455 43.59 32.3442 43.59 31.7507 43.5509C31.415 43.5275 31.1807 43.1918 31.1807 42.8561C31.1807 42.5047 31.4306 42.2158 31.782 42.1456C31.821 42.1378 31.8601 42.1299 31.8991 42.1299C32.1568 42.1299 32.4223 42.1299 32.68 42.1299C32.68 42.1378 32.68 42.1378 32.68 42.1456Z" fill="#262B3B"/>
</g>
<defs>
<clipPath id="clip0_1_318">
<rect width="50" height="50" fill="white"/>
</clipPath>
</defs>
</svg>
