<svg width="105" height="62" viewBox="0 0 105 62" fill="none" xmlns="http://www.w3.org/2000/svg">
<path d="M9.92744 21.5625C11.0818 20.4882 12.1592 19.4139 13.8522 20.4882C13.7753 20.7184 13.8522 21.1021 13.6983 21.1788C9.61961 24.4017 7.69569 28.6222 7.15699 33.7635C6.92612 36.4492 6.15655 39.135 5.61785 41.8207C5.84873 41.9742 6.0796 42.0509 6.31047 42.2044C6.92612 41.6672 7.46482 41.0534 8.3883 40.2093C8.54222 41.5138 8.61917 42.5881 8.77309 43.9693C9.54266 44.353 10.5431 44.8134 11.4666 45.3505C15.3914 43.4322 13.3135 40.2093 13.6983 37.6002C13.0057 37.2166 12.467 36.9096 11.6975 36.5259C16.5457 32.3822 21.3171 28.392 26.1653 24.2482C24.0875 21.1788 20.7784 20.258 17.931 18.5698C23.9336 12.5844 37.478 13.1983 47.5594 20.0278C43.9424 19.2604 41.1719 18.5698 38.2476 18.1861C35.2463 17.8024 32.168 17.7257 29.1667 17.5722C29.0128 18.1094 28.8588 18.4163 29.0128 18.5698C30.1671 20.0278 31.7832 21.409 30.9367 23.6344C29.8593 26.7038 29.5515 30.3104 26.2423 32.0753C23.7797 33.3798 21.1632 34.4541 18.5466 35.5284C15.4683 36.8329 15.0066 37.5235 15.3914 40.7464C15.4683 41.1301 15.4683 41.5138 15.6223 41.8974C16.161 43.6624 16.084 45.2738 14.237 46.1946C12.3131 47.1155 10.3892 48.5734 8.23439 46.8085C7.23395 46.0412 6.23351 45.1971 5.31003 44.353C4.00176 43.202 3.84785 41.8974 4.23263 40.2093C5.23307 35.4516 6.31047 30.694 7.15699 25.9364C7.8496 21.716 8.85004 17.7257 12.0822 13.8889C9.31179 13.275 6.84916 13.1216 4.77133 12.2007C2.53958 11.2032 1.30827 9.05457 0 6.44556C5.46394 7.44312 10.8509 6.36882 15.3144 9.9754C12.0822 9.59172 8.85004 9.13131 5.5409 8.74763C5.46394 8.9011 5.38698 8.97783 5.38698 9.13131C8.15743 10.5893 10.9279 12.124 13.3135 13.4285C12.1592 16.3445 11.0818 18.9535 9.92744 21.5625Z" fill="#ED1C24"/>
<path d="M68.722 61.6185C60.8724 61.6185 53.7154 61.6185 46.5585 61.6185C45.8658 61.6185 45.0193 61.3883 44.4037 60.9279C40.4789 58.0887 36.5541 55.2494 32.6293 52.3335C30.7053 50.9522 30.2436 49.1106 31.0132 46.8852C31.5519 45.3505 31.9366 43.7391 32.3984 41.9742C37.0928 41.437 41.7102 40.8999 46.2506 40.3627C46.7893 31.9218 40.8636 28.085 35.9384 23.3274C39.0936 24.2482 42.2489 25.0923 45.3271 26.2433C46.2506 26.5503 47.1741 27.7013 47.4819 28.6222C50.7911 39.8256 50.4833 37.6002 60.1798 40.286C60.4107 40.3627 60.5646 40.5929 61.4881 41.1301C52.3302 42.2811 43.7111 43.3554 35.0149 44.5064C34.7841 45.9644 34.5532 47.1922 34.3223 48.4967C38.7858 51.4894 43.0954 54.4821 47.4819 57.398C49.3289 58.6258 51.2528 58.6258 56.8707 58.0119C56.332 56.7074 55.7933 55.4796 55.2546 54.0984C59.3333 53.0241 62.7194 53.5613 65.182 57.3213C66.0286 58.7025 67.2599 59.8536 68.722 61.6185Z" fill="#ED1C24"/>
<path d="M86.8075 11.587C82.5749 11.587 78.4192 11.5103 74.1866 11.587C67.7992 11.7405 61.4117 11.9707 55.0243 12.0474C53.2543 12.0474 51.4843 11.8172 49.7143 11.3568C46.8669 10.6662 44.0964 9.74535 41.249 8.44084C45.0969 7.75022 48.9447 6.90613 52.8695 6.29224C56.9482 5.7551 60.95 5.06447 65.0287 4.60406C67.2605 4.37385 69.6461 4.29712 71.8009 4.83427C77.1109 6.21551 82.1131 8.44084 86.8075 11.587Z" fill="url(#paint0_linear_103_222)"/>
<path d="M43.7116 47.7292C46.4051 49.6476 48.4059 51.0288 50.3299 52.3333C46.3281 51.1056 42.3263 49.8778 38.8633 46.1945C41.0181 45.8875 42.5572 45.2737 44.0964 45.4271C49.9451 45.8875 55.8708 46.1178 61.5656 47.2688C65.3365 48.0361 67.7221 47.1153 69.646 44.1226C70.0308 43.5087 70.5695 42.9716 71.493 41.8206C72.5704 44.6598 73.4169 47.0386 74.4174 49.7243C72.1856 50.7219 70.3387 51.9497 68.2608 52.4868C66.9525 52.8705 65.3365 52.4868 63.8743 52.1031C57.9486 50.7219 51.946 49.1872 46.0203 47.7292C45.6355 47.6525 45.0968 47.7292 43.7116 47.7292Z" fill="#ED1C24"/>
<path d="M104.661 30.7708C103.276 30.2336 101.814 29.6965 100.506 29.0059C92.887 25.1691 85.1144 21.5625 76.5722 19.8743C71.2621 18.8768 66.183 18.9535 61.1808 21.0254C59.2569 21.8695 57.179 22.4833 54.9473 22.6368C56.4864 20.7952 58.1025 18.9535 59.6416 17.1886C60.9499 15.7306 62.566 15.4237 64.4899 15.3469C72.9552 15.3469 81.0357 17.0351 88.6544 20.6417C93.5796 23.0205 98.197 26.0899 102.891 28.9291C103.507 29.3896 103.969 30.2336 104.661 30.7708Z" fill="#ED1C24"/>
<path d="M40.0944 2.22502C35.7079 5.37118 32.1679 7.90346 27.0118 6.90589C24.2413 6.36874 21.24 6.82916 18.0078 6.82916C20.6243 4.60382 23.087 2.45522 25.8574 0.076416C30.167 0.690302 34.7844 1.38092 40.0944 2.22502Z" fill="url(#paint1_linear_103_222)"/>
<path d="M59.1795 1.38086C51.0221 4.9107 43.4033 7.44298 35.1689 7.59645C42.249 2.91557 49.6368 -0.460797 59.1795 1.38086Z" fill="url(#paint2_linear_103_222)"/>
<defs>
<linearGradient id="paint0_linear_103_222" x1="76.272" y1="4.4813" x2="53.6332" y2="11.2329" gradientUnits="userSpaceOnUse">
<stop stop-color="#F16521"/>
<stop offset="1" stop-color="#ED1C24"/>
</linearGradient>
<linearGradient id="paint1_linear_103_222" x1="39.212" y1="-0.000305871" x2="23.1242" y2="5.81265" gradientUnits="userSpaceOnUse">
<stop stop-color="#F16929"/>
<stop offset="1" stop-color="#ED1C24"/>
</linearGradient>
<linearGradient id="paint2_linear_103_222" x1="55.4956" y1="0.933254" x2="43.4289" y2="4.96511" gradientUnits="userSpaceOnUse">
<stop stop-color="#F16521"/>
<stop offset="1" stop-color="#ED1C24"/>
</linearGradient>
</defs>
</svg>
