<svg width="359" height="65" viewBox="0 0 359 65" fill="none" xmlns="http://www.w3.org/2000/svg">
<g clip-path="url(#clip0_1_414)">
<path d="M312.753 37.9096C311.983 39.7513 311.291 41.2093 310.444 43.1277C302.287 43.1277 294.129 43.1277 285.895 43.1277C283.586 48.1922 281.278 53.4102 278.969 58.5515C280.508 58.5515 281.662 58.5515 282.586 58.5515C285.51 58.5515 288.511 58.5515 291.436 58.5515C295.976 58.5515 295.976 58.5515 297.515 53.5637C294.129 53.5637 290.897 53.5637 286.972 53.5637C287.819 51.4151 288.511 49.8804 289.127 48.2689C295.361 48.2689 301.44 48.2689 308.135 48.2689C306.058 52.6429 304.442 56.5564 302.364 60.3165C300.978 62.8487 298.362 63.923 295.515 63.923C289.512 63.9998 283.509 63.9998 277.43 63.923C276.429 63.923 275.352 63.6161 274.428 63.2324C271.735 62.1581 270.58 60.0095 271.735 57.4005C273.967 52.1057 276.429 46.8877 278.969 41.7464C280.123 39.4443 282.124 38.0631 284.741 37.7562C285.741 37.6027 286.741 37.4492 287.819 37.4492C294.976 37.4492 302.133 37.4492 309.367 37.4492C310.367 37.4492 311.368 37.6794 312.753 37.9096Z" fill="#262B3B"/>
<path d="M130.75 63.9997C127.902 63.9997 125.132 64.0764 122.285 63.923C120.668 63.8462 118.975 63.5393 117.436 62.9254C114.897 61.8511 114.05 59.4723 115.128 56.94C117.282 52.0289 119.437 47.1179 121.823 42.3602C122.977 39.9814 125.055 38.37 127.748 37.9096C129.288 37.6794 130.827 37.4492 132.289 37.4492C136.906 37.3724 141.524 37.3724 146.141 37.4492C147.449 37.4492 148.681 37.5259 149.989 37.7561C155.145 38.6002 156.607 41.1325 154.453 45.8133C152.606 49.8803 150.605 53.8706 148.912 58.0143C147.142 62.2348 143.909 63.9997 139.6 63.9997C136.675 63.9997 133.674 63.9997 130.75 63.9997ZM122.285 58.5512C123.131 58.5512 123.978 58.4747 124.286 58.4747C128.98 58.5515 133.828 58.5512 138.523 58.5512C139.985 58.5512 140.908 57.4772 141.447 56.2494C142.678 53.4869 143.986 50.7244 145.295 47.8852C145.91 46.5807 146.372 45.1995 147.142 43.3578C141.062 43.3578 135.444 43.3578 129.749 43.3578C127.518 48.1154 124.516 53.7169 122.285 58.5512Z" fill="#262B3B"/>
<path d="M232.641 43.1275C224.868 43.1275 217.249 43.1275 209.631 43.1275C209.015 44.2785 208.476 44.9692 208.168 45.8133C207.938 46.2737 207.938 46.7341 207.784 47.7317C209.246 47.8084 210.477 47.9619 211.631 47.9619C214.941 47.9619 218.327 47.8851 221.636 48.0386C222.867 48.1153 224.175 48.3455 225.33 48.8827C227.562 49.8803 228.408 51.9521 227.485 54.3309C226.715 56.4795 225.715 58.5514 224.483 60.5465C223.175 62.8486 220.789 63.8461 218.327 63.9229C210.092 63.9996 201.781 63.9229 193.393 63.9229C193.008 61.6975 194.316 60.393 195.163 58.5514C199.241 58.5514 203.32 58.5514 207.399 58.5514C209.861 58.5514 212.247 58.5514 214.71 58.5514C218.481 58.4746 218.635 58.3979 220.02 54.1007C219.25 53.8705 218.404 53.4868 217.634 53.4868C214.017 53.4101 210.477 53.4868 206.86 53.4101C205.629 53.4101 204.244 53.3334 203.089 52.8729C200.396 51.9521 199.318 49.7268 200.319 47.1178C201.088 45.1226 201.858 42.974 203.166 41.2859C204.321 39.9046 206.091 38.907 207.707 38.063C208.707 37.6025 209.938 37.5258 211.093 37.5258C218.25 37.4491 225.484 37.5258 232.641 37.5258C233.256 37.5258 233.872 37.756 235.026 37.9095C234.18 39.6744 233.487 41.2091 232.641 43.1275Z" fill="#262B3B"/>
<path d="M179.694 54.9448C181.695 58.2444 183.157 60.7 184.927 63.6159C182.08 63.6159 179.771 63.6159 177.001 63.6159C175.231 61.0069 173.384 58.1677 171.383 55.175C169.536 55.175 167.612 55.175 165.38 55.175C164.072 57.9375 162.687 60.7767 161.225 63.7694C158.916 63.7694 156.684 63.7694 153.914 63.7694C155.684 58.7816 157.993 54.3309 160.301 49.4966C168.382 49.4966 176.385 49.4966 184.697 49.4966C185.62 47.5014 186.39 45.7365 187.544 43.281C179.31 42.7438 171.691 43.3577 163.456 42.8973C164.303 40.9022 164.919 39.4442 165.457 38.2164C165.919 37.9095 166.15 37.6793 166.381 37.6793C173.923 37.6025 181.464 37.6025 189.083 37.6025C189.699 37.6025 190.391 37.756 191.007 37.9095C194.316 38.8303 195.548 41.2091 194.393 44.3553C193.624 46.3504 192.623 48.2688 191.7 50.2639C190.314 53.2566 187.929 54.6379 184.697 54.8681C183.234 55.0215 181.849 54.9448 179.694 54.9448Z" fill="#262B3B"/>
<path d="M273.043 37.9095C269.041 46.6574 265.193 55.0983 261.269 63.6927C258.96 63.6927 256.728 63.6927 254.112 63.6927C255.112 61.3139 255.959 59.0885 257.036 56.633C251.649 56.633 246.57 56.633 241.183 56.633C240.106 58.8583 238.874 61.2371 237.643 63.7694C235.488 63.7694 233.333 63.7694 230.563 63.7694C232.564 59.3955 234.334 55.3285 236.258 51.0313C244.03 51.0313 251.803 51.0313 259.653 51.0313C260.807 48.4223 261.884 46.1202 263.116 43.281C255.343 42.7438 248.032 43.3577 240.182 42.8973C241.337 40.2883 242.799 38.7536 245.108 38.063C246.339 37.6793 247.647 37.5258 248.879 37.5258C256.036 37.4491 263.193 37.4491 270.427 37.5258C271.119 37.4491 271.889 37.6793 273.043 37.9095Z" fill="#262B3B"/>
<path d="M9.92744 23.5625C11.0818 22.4882 12.1592 21.4139 13.8522 22.4882C13.7753 22.7184 13.8522 23.1021 13.6983 23.1788C9.61961 26.4017 7.69569 30.6222 7.15699 35.7635C6.92612 38.4492 6.15655 41.135 5.61785 43.8207C5.84873 43.9742 6.0796 44.0509 6.31047 44.2044C6.92612 43.6672 7.46482 43.0534 8.3883 42.2093C8.54222 43.5138 8.61917 44.5881 8.77309 45.9693C9.54266 46.353 10.5431 46.8134 11.4666 47.3505C15.3914 45.4322 13.3135 42.2093 13.6983 39.6002C13.0057 39.2166 12.467 38.9096 11.6974 38.5259C16.5457 34.3822 21.3171 30.392 26.1653 26.2482C24.0875 23.1788 20.7784 22.258 17.931 20.5698C23.9336 14.5844 37.478 15.1983 47.5594 22.0278C43.9424 21.2604 41.1719 20.5698 38.2476 20.1861C35.2463 19.8024 32.168 19.7257 29.1667 19.5722C29.0128 20.1094 28.8588 20.4163 29.0128 20.5698C30.1671 22.0278 31.7832 23.409 30.9367 25.6343C29.8593 28.7038 29.5515 32.3104 26.2423 34.0753C23.7797 35.3798 21.1632 36.4541 18.5466 37.5284C15.4683 38.8329 15.0066 39.5235 15.3914 42.7464C15.4683 43.1301 15.4683 43.5138 15.6223 43.8974C16.1609 45.6624 16.084 47.2738 14.237 48.1946C12.3131 49.1155 10.3892 50.5734 8.23439 48.8085C7.23395 48.0412 6.23351 47.1971 5.31003 46.353C4.00176 45.202 3.84785 43.8974 4.23263 42.2093C5.23307 37.4516 6.31047 32.694 7.15699 27.9364C7.84961 23.716 8.85004 19.7257 12.0822 15.8889C9.31179 15.275 6.84916 15.1216 4.77133 14.2007C2.53958 13.2032 1.30827 11.0546 0 8.44556C5.46394 9.44312 10.8509 8.36882 15.3144 11.9754C12.0822 11.5917 8.85004 11.1313 5.5409 10.7476C5.46394 10.9011 5.38698 10.9778 5.38698 11.1313C8.15743 12.5893 10.9279 14.124 13.3135 15.4285C12.1592 18.3445 11.0818 20.9535 9.92744 23.5625Z" fill="#ED1C24"/>
<path d="M68.722 63.6185C60.8724 63.6185 53.7154 63.6185 46.5585 63.6185C45.8658 63.6185 45.0193 63.3883 44.4037 62.9279C40.4789 60.0887 36.5541 57.2494 32.6293 54.3335C30.7053 52.9522 30.2436 51.1106 31.0132 48.8853C31.5519 47.3505 31.9366 45.7391 32.3984 43.9742C37.0928 43.437 41.7102 42.8999 46.2506 42.3627C46.7893 33.9218 40.8636 30.085 35.9384 25.3274C39.0936 26.2482 42.2489 27.0923 45.3271 28.2433C46.2506 28.5503 47.1741 29.7013 47.4819 30.6222C50.7911 41.8256 50.4833 39.6002 60.1798 42.286C60.4107 42.3627 60.5646 42.5929 61.4881 43.1301C52.3302 44.2811 43.7111 45.3554 35.0149 46.5064C34.7841 47.9644 34.5532 49.1922 34.3223 50.4967C38.7858 53.4894 43.0954 56.4821 47.4819 59.398C49.3289 60.6258 51.2528 60.6258 56.8707 60.0119C56.332 58.7074 55.7933 57.4796 55.2546 56.0984C59.3333 55.0241 62.7194 55.5613 65.182 59.3213C66.0286 60.7025 67.2599 61.8536 68.722 63.6185Z" fill="#ED1C24"/>
<path d="M321.218 53.4869C320.526 55.0216 319.756 56.7098 318.986 58.5515C325.912 58.5515 333.069 58.5515 340.149 58.5515C339.457 60.3931 338.764 62.5417 338.225 63.923C333.608 63.923 312.06 63.923 308.597 63.923C310.829 58.9351 313.676 53.2567 315.985 48.1921C323.219 48.1921 330.53 48.1921 337.841 48.1921C337.533 49.113 337.225 49.8036 336.917 50.4942C336.533 51.415 335.994 52.2591 335.378 53.4102C330.607 53.4869 325.912 53.4869 321.218 53.4869Z" fill="#262B3B"/>
<path d="M86.8075 13.587C82.5749 13.587 78.4192 13.5103 74.1866 13.587C67.7992 13.7405 61.4117 13.9707 55.0243 14.0474C53.2543 14.0474 51.4843 13.8172 49.7143 13.3568C46.8669 12.6662 44.0964 11.7454 41.249 10.4408C45.0969 9.75022 48.9447 8.90613 52.8695 8.29225C56.9482 7.7551 60.95 7.06447 65.0287 6.60406C67.2605 6.37385 69.6461 6.29712 71.8009 6.83427C77.1109 8.21551 82.1131 10.4408 86.8075 13.587Z" fill="url(#paint0_linear_1_414)"/>
<path d="M101.891 53.4102C96.9657 53.4102 92.4253 53.4102 87.6539 53.4102C86.0378 56.8633 84.4217 60.2397 82.7287 63.6928C80.4969 63.6928 78.1882 63.6928 75.3408 63.6928C76.5721 60.9303 77.7265 58.3213 78.8808 55.7123C80.0352 53.18 81.1895 50.6478 82.4209 48.1155C89.6548 48.1155 96.5809 48.1155 104.123 48.1155C103.353 50.1106 102.737 51.5686 101.891 53.4102Z" fill="#262B3B"/>
<path d="M318.448 42.8975C319.371 40.8256 319.987 39.3676 320.679 37.6794C330.376 37.6794 339.996 37.6794 350 37.6794C349.692 38.6003 349.538 39.1374 349.307 39.6746C348.846 40.6721 348.307 41.6697 347.768 42.8207C338.149 42.8975 328.606 42.8975 318.448 42.8975Z" fill="#262B3B"/>
<path d="M84.8065 43.0509C85.8839 40.7489 86.7303 38.7537 87.3459 37.4492C91.5786 37.4492 113.049 37.4493 116.205 37.4492C115.512 38.9839 114.974 41.2093 114.127 43.0509C104.661 43.1277 95.1957 43.1277 84.8065 43.0509Z" fill="#262B3B"/>
<path d="M43.7116 49.7292C46.4051 51.6476 48.4059 53.0288 50.3299 54.3333C46.3281 53.1056 42.3263 51.8778 38.8633 48.1945C41.0181 47.8875 42.5572 47.2737 44.0964 47.4271C49.9451 47.8875 55.8708 48.1178 61.5656 49.2688C65.3365 50.0361 67.7221 49.1153 69.646 46.1226C70.0308 45.5087 70.5695 44.9716 71.493 43.8206C72.5704 46.6598 73.4169 49.0386 74.4174 51.7243C72.1856 52.7219 70.3387 53.9497 68.2608 54.4868C66.9525 54.8705 65.3365 54.4868 63.8743 54.1031C57.9486 52.7219 51.946 51.1872 46.0203 49.7292C45.6355 49.6525 45.0968 49.7292 43.7116 49.7292Z" fill="#ED1C24"/>
<path d="M104.661 32.7708C103.276 32.2336 101.814 31.6965 100.506 31.0059C92.887 27.1691 85.1144 23.5625 76.5722 21.8743C71.2621 20.8768 66.183 20.9535 61.1808 23.0254C59.2569 23.8695 57.179 24.4833 54.9473 24.6368C56.4864 22.7952 58.1025 20.9535 59.6416 19.1886C60.9499 17.7306 62.566 17.4237 64.4899 17.3469C72.9552 17.3469 81.0357 19.0351 88.6544 22.6417C93.5796 25.0205 98.197 28.0899 102.891 30.9291C103.507 31.3896 103.969 32.2336 104.661 32.7708Z" fill="#ED1C24"/>
<path d="M40.0944 4.22502C35.7079 7.37118 32.1679 9.90346 27.0118 8.90589C24.2413 8.36874 21.24 8.82916 18.0078 8.82916C20.6243 6.60382 23.087 4.45522 25.8574 2.07642C30.167 2.6903 34.7844 3.38092 40.0944 4.22502Z" fill="url(#paint1_linear_1_414)"/>
<path d="M59.1795 3.38086C51.0221 6.9107 43.4033 9.44298 35.1689 9.59645C42.249 4.91557 49.6368 1.5392 59.1795 3.38086Z" fill="url(#paint2_linear_1_414)"/>
</g>
<defs>
<linearGradient id="paint0_linear_1_414" x1="76.272" y1="6.4813" x2="53.6332" y2="13.2329" gradientUnits="userSpaceOnUse">
<stop stop-color="#F16521"/>
<stop offset="1" stop-color="#ED1C24"/>
</linearGradient>
<linearGradient id="paint1_linear_1_414" x1="39.212" y1="1.99969" x2="23.1242" y2="7.81265" gradientUnits="userSpaceOnUse">
<stop stop-color="#F16929"/>
<stop offset="1" stop-color="#ED1C24"/>
</linearGradient>
<linearGradient id="paint2_linear_1_414" x1="55.4956" y1="2.93325" x2="43.4289" y2="6.96511" gradientUnits="userSpaceOnUse">
<stop stop-color="#F16521"/>
<stop offset="1" stop-color="#ED1C24"/>
</linearGradient>
<clipPath id="clip0_1_414">
<rect width="350" height="63" fill="white" transform="translate(0 0.999756)"/>
</clipPath>
</defs>
</svg>
