<svg width="277" height="50" viewBox="0 0 277 50" fill="none" xmlns="http://www.w3.org/2000/svg">
<g clip-path="url(#clip0_1_133)">
<path d="M241.316 29.1615C240.722 30.5782 240.188 31.6997 239.535 33.1754C233.241 33.1754 226.947 33.1754 220.593 33.1754C218.812 37.0712 217.03 41.0851 215.249 45.0399C216.437 45.0399 217.327 45.0399 218.04 45.0399C220.296 45.0399 222.612 45.0399 224.868 45.0399C228.372 45.0399 228.372 45.0399 229.559 41.2031C226.947 41.2031 224.453 41.2031 221.424 41.2031C222.077 39.5504 222.612 38.3698 223.087 37.1302C227.897 37.1302 232.588 37.1302 237.754 37.1302C236.15 40.4948 234.903 43.5052 233.3 46.3976C232.231 48.3455 230.212 49.1718 228.015 49.1718C223.384 49.2309 218.752 49.2309 214.061 49.1718C213.289 49.1718 212.458 48.9357 211.746 48.6406C209.667 47.8142 208.777 46.1614 209.667 44.1545C211.389 40.0816 213.289 36.0677 215.249 32.1129C216.14 30.3421 217.683 29.2796 219.702 29.0435C220.474 28.9254 221.246 28.8074 222.077 28.8074C227.6 28.8074 233.122 28.8074 238.704 28.8074C239.476 28.8074 240.247 28.9845 241.316 29.1615Z" fill="white"/>
<path d="M100.885 49.231C98.6879 49.231 96.5503 49.29 94.3532 49.1719C93.1063 49.1129 91.8 48.8768 90.6124 48.4046C88.6529 47.5782 87.9997 45.7483 88.831 43.8004C90.4936 40.0227 92.1562 36.2449 93.997 32.5852C94.8877 30.7554 96.4909 29.5158 98.5692 29.1616C99.7567 28.9845 100.944 28.8075 102.073 28.8075C105.635 28.7484 109.198 28.7484 112.761 28.8075C113.77 28.8075 114.72 28.8665 115.73 29.0436C119.708 29.6929 120.836 31.6408 119.174 35.2414C117.749 38.3699 116.205 41.4393 114.898 44.6268C113.533 47.8733 111.039 49.231 107.714 49.231C105.457 49.231 103.141 49.231 100.885 49.231ZM94.3532 45.0398C95.0066 45.0398 95.6598 44.981 95.8973 44.981C99.5194 45.04 103.26 45.0398 106.882 45.0398C108.011 45.0398 108.723 44.2136 109.139 43.2692C110.089 41.1442 111.098 39.0192 112.108 36.8352C112.583 35.8317 112.939 34.7692 113.533 33.3526C108.842 33.3526 104.507 33.3526 100.113 33.3526C98.391 37.0123 96.0752 41.3211 94.3532 45.0398Z" fill="white"/>
<path d="M179.503 33.1756C173.505 33.1756 167.627 33.1756 161.748 33.1756C161.273 34.061 160.858 34.5922 160.62 35.2415C160.442 35.5957 160.442 35.9499 160.323 36.7172C161.452 36.7762 162.402 36.8943 163.292 36.8943C165.846 36.8943 168.458 36.8353 171.012 36.9533C171.962 37.0124 172.971 37.1894 173.862 37.6026C175.584 38.37 176.237 39.9637 175.524 41.7936C174.931 43.4463 174.159 45.0401 173.209 46.5748C172.199 48.3456 170.358 49.113 168.458 49.172C162.105 49.231 155.692 49.172 149.219 49.172C148.923 47.4602 149.932 46.4567 150.585 45.0401C153.732 45.0401 156.879 45.0401 160.026 45.0401C161.927 45.0401 163.767 45.0401 165.667 45.0401C168.577 44.9811 168.696 44.922 169.765 41.6165C169.171 41.4394 168.518 41.1443 167.924 41.1443C165.133 41.0853 162.402 41.1443 159.611 41.0853C158.661 41.0853 157.592 41.0262 156.701 40.6721C154.623 39.9637 153.792 38.2519 154.564 36.245C155.157 34.7103 155.751 33.0575 156.761 31.7589C157.651 30.6964 159.017 29.9291 160.264 29.2798C161.036 28.9256 161.986 28.8666 162.877 28.8666C168.399 28.8075 173.981 28.8666 179.503 28.8666C179.978 28.8666 180.453 29.0436 181.344 29.1617C180.69 30.5193 180.156 31.6999 179.503 33.1756Z" fill="white"/>
<path d="M138.65 42.2657C140.194 44.8039 141.322 46.6928 142.688 48.9358C140.491 48.9358 138.709 48.9358 136.572 48.9358C135.206 46.9289 133.781 44.7449 132.237 42.4428C130.812 42.4428 129.327 42.4428 127.605 42.4428C126.596 44.5678 125.527 46.7518 124.399 49.0539C122.618 49.0539 120.896 49.0539 118.758 49.0539C120.124 45.2171 121.905 41.7935 123.686 38.0748C129.921 38.0748 136.097 38.0748 142.51 38.0748C143.222 36.5401 143.816 35.1824 144.707 33.2936C138.353 32.8804 132.475 33.3526 126.121 32.9984C126.774 31.4637 127.249 30.3422 127.665 29.3978C128.021 29.1616 128.199 28.9846 128.377 28.9846C134.197 28.9255 140.016 28.9255 145.894 28.9255C146.369 28.9255 146.904 29.0436 147.379 29.1616C149.932 29.87 150.882 31.6998 149.991 34.12C149.398 35.6547 148.626 37.1304 147.913 38.6651C146.844 40.9671 145.004 42.0296 142.51 42.2067C141.381 42.3248 140.313 42.2657 138.65 42.2657Z" fill="white"/>
<path d="M210.677 29.1617C207.589 35.8908 204.62 42.3838 201.592 48.9949C199.81 48.9949 198.088 48.9949 196.07 48.9949C196.841 47.165 197.495 45.4533 198.326 43.5644C194.169 43.5644 190.25 43.5644 186.094 43.5644C185.263 45.2762 184.312 47.106 183.362 49.0539C181.7 49.0539 180.037 49.0539 177.9 49.0539C179.443 45.6894 180.809 42.5609 182.294 39.2554C188.291 39.2554 194.288 39.2554 200.345 39.2554C201.235 37.2484 202.067 35.4776 203.017 33.2936C197.02 32.8804 191.379 33.3526 185.322 32.9985C186.213 30.9915 187.341 29.811 189.122 29.2797C190.072 28.9846 191.082 28.8665 192.032 28.8665C197.554 28.8075 203.076 28.8075 208.658 28.8665C209.192 28.8075 209.786 28.9846 210.677 29.1617Z" fill="white"/>
<path d="M7.65989 18.1255C8.55058 17.2991 9.38188 16.4727 10.6882 17.2991C10.6288 17.4762 10.6882 17.7713 10.5695 17.8303C7.42238 20.3095 5.9379 23.556 5.52225 27.5108C5.34411 29.5768 4.75032 31.6428 4.33467 33.7087C4.5128 33.8268 4.69094 33.8858 4.86908 34.0039C5.34411 33.5907 5.75976 33.1185 6.47231 32.4692C6.59107 33.4726 6.65045 34.299 6.76921 35.3615C7.363 35.6566 8.13492 36.0108 8.84747 36.424C11.8758 34.9483 10.2726 32.4692 10.5695 30.4622C10.0351 30.1671 9.6194 29.931 9.02561 29.6358C12.7665 26.4483 16.448 23.3789 20.1889 20.1914C18.5856 17.8303 16.0323 17.122 13.8353 15.8234C18.4669 11.2193 28.9176 11.6915 36.6962 16.9449C33.9054 16.3547 31.7678 15.8234 29.5114 15.5283C27.1956 15.2331 24.8204 15.1741 22.5046 15.0561C22.3859 15.4692 22.2671 15.7054 22.3859 15.8234C23.2766 16.9449 24.5235 18.0074 23.8704 19.7192C23.0391 22.0803 22.8015 24.8546 20.2482 26.2122C18.3481 27.2157 16.3292 28.0421 14.3103 28.8685C11.9352 29.8719 11.5789 30.4032 11.8758 32.8823C11.9352 33.1775 11.9352 33.4726 12.0539 33.7678C12.4696 35.1254 12.4102 36.365 10.9851 37.0733C9.50064 37.7816 8.01617 38.9031 6.35355 37.5455C5.58163 36.9552 4.8097 36.3059 4.09715 35.6566C3.08771 34.7712 2.96895 33.7678 3.26585 32.4692C4.03777 28.8095 4.86908 25.1497 5.52225 21.49C6.05666 18.2435 6.82859 15.1741 9.3225 12.2227C7.18486 11.7505 5.28473 11.6325 3.6815 10.9241C1.95951 10.1568 1.00944 8.504 0 6.49707C4.21591 7.26443 8.37244 6.43804 11.8164 9.21233C9.3225 8.9172 6.82859 8.56303 4.27529 8.26789C4.21591 8.38595 4.15653 8.44498 4.15653 8.56303C6.29418 9.68455 8.43182 10.8651 10.2726 11.8686C9.38188 14.1116 8.55058 16.1185 7.65989 18.1255Z" fill="#ED1C24"/>
<path d="M53.0251 48.9376C46.9684 48.9376 41.4462 48.9376 35.9239 48.9376C35.3895 48.9376 34.7364 48.7605 34.2613 48.4064C31.233 46.2223 28.2047 44.0383 25.1763 41.7953C23.6919 40.7328 23.3356 39.3161 23.9294 37.6043C24.345 36.4238 24.6419 35.1842 24.9982 33.8266C28.6203 33.4134 32.1831 33.0002 35.6864 32.587C36.1021 26.094 31.5299 23.1426 27.7296 19.4829C30.1642 20.1912 32.5987 20.8405 34.9739 21.726C35.6864 21.9621 36.399 22.8475 36.6365 23.5558C39.1898 32.1738 38.9523 30.462 46.434 32.528C46.6122 32.587 46.7309 32.7641 47.4435 33.1773C40.3774 34.0627 33.7269 34.8891 27.0171 35.7745C26.8389 36.896 26.6608 37.8405 26.4827 38.8439C29.9267 41.146 33.2519 43.4481 36.6365 45.6911C38.0616 46.6355 39.5461 46.6355 43.8807 46.1633C43.4651 45.1599 43.0494 44.2154 42.6338 43.1529C45.7809 42.3265 48.3935 42.7397 50.2937 45.6321C50.9468 46.6946 51.8969 47.58 53.0251 48.9376Z" fill="#ED1C24"/>
<path d="M247.848 41.1442C247.314 42.3247 246.72 43.6233 246.126 45.04C251.47 45.04 256.992 45.04 262.455 45.04C261.921 46.4567 261.386 48.1094 260.971 49.1719C257.408 49.1719 240.782 49.1719 238.11 49.1719C239.832 45.3351 242.029 40.9671 243.81 37.0713C249.392 37.0713 255.033 37.0713 260.674 37.0713C260.436 37.7796 260.199 38.3109 259.961 38.8421C259.664 39.5504 259.249 40.1997 258.774 41.0852C255.092 41.1442 251.47 41.1442 247.848 41.1442Z" fill="white"/>
<path d="M66.9796 10.4519C63.7138 10.4519 60.5073 10.3929 57.2415 10.4519C52.313 10.5699 47.3846 10.747 42.4561 10.806C41.0904 10.806 39.7247 10.629 38.359 10.2748C36.1619 9.74355 34.0243 9.03522 31.8273 8.03176C34.7962 7.50051 37.7652 6.85121 40.7935 6.37899C43.9406 5.9658 47.0283 5.43455 50.1754 5.08038C51.8974 4.9033 53.7381 4.84427 55.4007 5.25747C59.4979 6.31996 63.3575 8.03176 66.9796 10.4519Z" fill="url(#paint0_linear_1_133)"/>
<path d="M78.6178 41.0851C74.8176 41.0851 71.3142 41.0851 67.6327 41.0851C66.3858 43.7413 65.1388 46.3385 63.8325 48.9948C62.1105 48.9948 60.3291 48.9948 58.1321 48.9948C59.0821 46.8698 59.9728 44.8629 60.8635 42.8559C61.7542 40.908 62.6449 38.9601 63.5949 37.0122C69.1766 37.0122 74.5207 37.0122 80.3398 37.0122C79.746 38.5469 79.271 39.6684 78.6178 41.0851Z" fill="white"/>
<path d="M245.71 32.9985C246.423 31.4047 246.898 30.2832 247.432 28.9846C254.914 28.9846 262.336 28.9846 270.056 28.9846C269.818 29.6929 269.699 30.1061 269.521 30.5193C269.165 31.2867 268.749 32.054 268.334 32.9395C260.911 32.9985 253.548 32.9985 245.71 32.9985Z" fill="white"/>
<path d="M65.4357 33.1164C66.267 31.3456 66.92 29.8108 67.3951 28.8074C70.6609 28.8074 87.2275 28.8074 89.6622 28.8074C89.1278 29.9879 88.7122 31.6997 88.0591 33.1164C80.7555 33.1754 73.4518 33.1754 65.4357 33.1164Z" fill="white"/>
<path d="M33.7273 38.2536C35.8056 39.7293 37.3494 40.7918 38.8339 41.7953C35.7462 40.8508 32.6585 39.9064 29.9865 37.0731C31.6491 36.837 32.8366 36.3647 34.0242 36.4828C38.537 36.837 43.1092 37.014 47.5033 37.8994C50.4128 38.4897 52.2536 37.7814 53.7381 35.4793C54.0349 35.0071 54.4506 34.5939 55.1631 33.7085C55.9945 35.8925 56.6476 37.7224 57.4195 39.7883C55.6976 40.5557 54.2725 41.5001 52.6692 41.9133C51.6598 42.2085 50.4128 41.9133 49.2846 41.6182C44.7124 40.5557 40.0809 39.3751 35.5087 38.2536C35.2118 38.1946 34.7961 38.2536 33.7273 38.2536Z" fill="#ED1C24"/>
<path d="M80.7555 25.2088C79.6867 24.7956 78.5585 24.3824 77.549 23.8511C71.6705 20.8998 65.6732 18.1255 59.0822 16.8269C54.985 16.0595 51.066 16.1185 47.2064 17.7123C45.7219 18.3616 44.1187 18.8338 42.3967 18.9518C43.5842 17.5352 44.8312 16.1185 46.0188 14.7609C47.0282 13.6394 48.2752 13.4033 49.7597 13.3442C56.2914 13.3442 62.5261 14.6428 68.4047 17.4171C72.2049 19.247 75.7677 21.6081 79.3898 23.7921C79.8648 24.1463 80.2211 24.7956 80.7555 25.2088Z" fill="#ED1C24"/>
<path d="M30.9364 3.25042C27.5518 5.67055 24.8203 7.61846 20.8419 6.8511C18.7043 6.43791 16.3885 6.79207 13.8946 6.79207C15.9135 5.08028 17.8136 3.42751 19.9513 1.59766C23.2765 2.06988 26.8392 2.60112 30.9364 3.25042Z" fill="url(#paint1_linear_1_133)"/>
<path d="M45.6622 2.60096C39.368 5.31622 33.4895 7.26413 27.1359 7.38218C32.5988 3.78151 38.2992 1.1843 45.6622 2.60096Z" fill="url(#paint2_linear_1_133)"/>
</g>
<defs>
<linearGradient id="paint0_linear_1_133" x1="58.8505" y1="4.98596" x2="41.3915" y2="10.2088" gradientUnits="userSpaceOnUse">
<stop stop-color="#F16521"/>
<stop offset="1" stop-color="#ED1C24"/>
</linearGradient>
<linearGradient id="paint1_linear_1_133" x1="30.2555" y1="1.53864" x2="17.8511" y2="6.0344" gradientUnits="userSpaceOnUse">
<stop stop-color="#F16929"/>
<stop offset="1" stop-color="#ED1C24"/>
</linearGradient>
<linearGradient id="paint2_linear_1_133" x1="42.8197" y1="2.25665" x2="33.5149" y2="5.37519" gradientUnits="userSpaceOnUse">
<stop stop-color="#F16521"/>
<stop offset="1" stop-color="#ED1C24"/>
</linearGradient>
<clipPath id="clip0_1_133">
<rect width="270.056" height="48.4615" fill="white" transform="translate(0 0.769287)"/>
</clipPath>
</defs>
</svg>
