<svg width="21" height="30" viewBox="0 0 21 30" fill="none" xmlns="http://www.w3.org/2000/svg">
<path d="M10.05 -0.000244141C4.5 -0.000244141 0 4.49958 0 10.0498V19.9498C0 25.5001 4.49982 29.9998 10.05 29.9998C15.6002 29.9998 20.1 25.4999 20.1 19.9498V10.0498C20.1 4.49976 15.6002 -0.000244141 10.05 -0.000244141ZM18.1 19.9498C18.1 24.3998 14.5 27.9998 10.05 27.9998C5.6 27.9998 2 24.3998 2 19.9498V10.0498C2 5.59976 5.6 1.99976 10.05 1.99976C14.5 1.99976 18.1 5.59976 18.1 10.0498V19.9498Z" fill="#262B3B"/>
<path d="M11.0499 6.34976V10.7998C11.0499 11.3498 10.6 11.7997 10.05 11.7997C9.49997 11.7997 9.05005 11.3498 9.05005 10.7998V6.34976C9.05005 5.79975 9.49997 5.34985 10.05 5.34985C10.6 5.34985 11.0499 5.79977 11.0499 6.34976Z" fill="#ED1C24"/>
</svg>
